<?xml version="1.0" encoding="utf-8"?>
<svg version="1.0" id="Layer_1" xmlns="http://www.w3.org/2000/svg" xmlns:xlink="http://www.w3.org/1999/xlink" x="0px" y="0px"
	 viewBox="0 0 92.8 93.9" style="enable-background:new 0 0 92.8 93.9;" xml:space="preserve">
<style type="text/css">
	.st0{fill:#007AFF;}
</style>

<path class="st0" d="M74.2,93.3c-11.6,0-30.2-8.7-47.8-26.4C2.7,43.3-4.9,17.9,3,10c0.5-0.5,1.1-1.1,1.7-1.7
	c3.4-3.5,7.5-7.9,12.9-7.7c3.7,0.2,7.3,2.4,10.9,7c10.7,13.4,5.6,18.4,0.3,23.7c-0.3,0.3-0.6,0.6-1,1c-1,1-0.3,3.6,2,7.2
	c2.3,3.5,6,7.8,11.1,12.9C56.9,68.1,60.6,66,61.2,65.5c0.3-0.3,0.6-0.7,1-1c5.3-5.4,10.3-10.5,23.7,0.3c4.5,3.6,6.8,7.2,7,10.9
	c0.2,5.4-4.2,9.6-7.7,12.9c-0.6,0.6-1.2,1.1-1.7,1.7C81.3,92.3,78.2,93.3,74.2,93.3z M17.2,4.5c-3.5,0-6.8,3.4-9.6,6.5
	c-0.6,0.6-1.2,1.2-1.7,1.8c-5.6,5.6,0.9,28.8,23.4,51.3C51.7,86.5,75,93,80.5,87.5c0.6-0.6,1.2-1.1,1.8-1.7
	c3.1-2.9,6.6-6.3,6.5-9.9c-0.1-2.5-1.9-5.2-5.5-8C72.8,59.4,70,62.2,65,67.3c-0.3,0.3-0.6,0.7-1,1c-4.3,4.3-12.5,0.1-25.8-13.2
	c-5.3-5.3-9.2-9.9-11.6-13.6C23,36,22.4,31.9,25,29.3c0.3-0.3,0.7-0.7,1-1c5.1-5,7.9-7.8-0.6-18.3c-2.8-3.5-5.5-5.4-8-5.5
	C17.4,4.5,17.3,4.5,17.2,4.5z"/>
</svg>
