<?xml version="1.0" encoding="utf-8"?>
<svg version="1.0" id="Layer_1" xmlns="http://www.w3.org/2000/svg" xmlns:xlink="http://www.w3.org/1999/xlink" x="0px" y="0px"
	 viewBox="0 0 92.8 93.9" style="enable-background:new 0 0 92.8 93.9;" xml:space="preserve">
<style type="text/css">
	.st0{fill:#007AFF;}
</style>

<path class="st0" d="M46.4,93.9l-1.6-2.1C43.5,90.1,13.4,50.6,13.4,33c0-18.2,14.8-33,33-33s33,14.8,33,33
	c0,17.6-30.1,57.1-31.4,58.8L46.4,93.9z M46.4,4c-16,0-29,13-29,29c0,14.1,22.7,45.8,29,54.2c6.3-8.5,29-40.2,29-54.2
	C75.4,17,62.4,4,46.4,4z"/>
<path class="st0" d="M46.4,44.8c-6,0-10.9-4.9-10.9-10.9c0-6,4.9-10.9,10.9-10.9c6,0,10.9,4.9,10.9,10.9
	C57.2,40,52.4,44.8,46.4,44.8z M46.4,27.1c-3.8,0-6.9,3.1-6.9,6.9c0,3.8,3.1,6.9,6.9,6.9c3.8,0,6.9-3.1,6.9-6.9
	C53.2,30.2,50.2,27.1,46.4,27.1z"/>
</svg>
