<?xml version="1.0" encoding="utf-8"?>
<!-- Generator: Adobe Illustrator 21.0.2, SVG Export Plug-In . SVG Version: 6.00 Build 0)  -->
<svg version="1.0" id="Layer_1" xmlns="http://www.w3.org/2000/svg" xmlns:xlink="http://www.w3.org/1999/xlink" x="0px" y="0px"
	 viewBox="0 0 92.8 93.9" style="enable-background:new 0 0 92.8 93.9;" xml:space="preserve">
<style type="text/css">
	.st0{fill:#007AFF;}
</style>

<path class="st0" d="M83.4,16.4l-7,0c-1.1,0-2,0.9-2,2l0,2.9c0,1.6-1.3,3-3,3c-1.6,0-3-1.3-3-3l0-2.9c0-1.1-0.9-2-2-2l-40.3,0.2
	c-1.1,0-2,0.9-2,2l0,2.9c0,1.6-1.3,3-3,3s-3-1.3-3-3l0-2.9c0-1.1-0.9-2-2-2l-7,0c-4.3,0-7.8,3.5-7.7,7.8l0.2,45.2
	c0,4.3,3.5,7.8,7.8,7.7l74.3-0.4c4.3,0,7.8-3.5,7.7-7.8l-0.2-45.2C91.1,19.8,87.6,16.4,83.4,16.4z M87.4,69.3
	c0,2.1-1.7,3.8-3.7,3.8L9.4,73.5c-2.1,0-3.8-1.7-3.8-3.7L5.4,24.6c0-2.1,1.7-3.8,3.7-3.8l5,0l0,0.9c0,3.8,3.2,7,7,6.9
	c3.8,0,7-3.2,6.9-7l0-0.9l36.3-0.2l0,0.9c0,3.8,3.2,7,7,6.9c3.8,0,7-3.2,6.9-7l0-0.9l5,0c2.1,0,3.8,1.7,3.8,3.7L87.4,69.3z"/>

<path class="st0" d="M41.9,33.5l-8.3,0c-1.1,0-2,0.9-2,2c0,1.1,0.9,2,2,2l8.3,0c1.1,0,2-0.9,2-2S43,33.5,41.9,33.5z"/>

<path class="st0" d="M59.5,33.4l-8.3,0c-1.1,0-2,0.9-2,2s0.9,2,2,2l8.3,0c1.1,0,2-0.9,2-2C61.5,34.3,60.6,33.4,59.5,33.4z"/>

<path class="st0" d="M77.1,33.3l-8.3,0c-1.1,0-2,0.9-2,2s0.9,2,2,2l8.3,0c1.1,0,2-0.9,2-2C79.1,34.2,78.2,33.3,77.1,33.3z"/>

<path class="st0" d="M24.4,43.1h-8.3c-1.1,0-2,0.9-2,2s0.9,2,2,2h8.3c1.1,0,2-0.9,2-2S25.5,43.1,24.4,43.1z"/>

<path class="st0" d="M42,43.1l-8.3,0c-1.1,0-2,0.9-2,2c0,1.1,0.9,2,2,2l8.3,0c1.1,0,2-0.9,2-2C44,44,43.1,43.1,42,43.1z"/>

<path class="st0" d="M59.5,43l-8.3,0c-1.1,0-2,0.9-2,2c0,1.1,0.9,2,2,2l8.3,0c1.1,0,2-0.9,2-2C61.5,43.9,60.6,43,59.5,43z"/>

<path class="st0" d="M77.1,42.9l-8.3,0c-1.1,0-2,0.9-2,2c0,1.1,0.9,2,2,2l8.3,0c1.1,0,2-0.9,2-2C79.1,43.8,78.2,42.9,77.1,42.9z"/>

<path class="st0" d="M24.4,52.6h-8.3c-1.1,0-2,0.9-2,2s0.9,2,2,2h8.3c1.1,0,2-0.9,2-2S25.5,52.6,24.4,52.6z"/>

<path class="st0" d="M42,52.6l-8.3,0c-1.1,0-2,0.9-2,2c0,1.1,0.9,2,2,2l8.3,0c1.1,0,2-0.9,2-2C44,53.5,43.1,52.6,42,52.6z"/>

<path class="st0" d="M59.6,52.6l-8.3,0c-1.1,0-2,0.9-2,2c0,1.1,0.9,2,2,2l8.3,0c1.1,0,2-0.9,2-2C61.6,53.4,60.7,52.6,59.6,52.6z"
	/>

<path class="st0" d="M77.2,52.5l-8.3,0c-1.1,0-2,0.9-2,2c0,1.1,0.9,2,2,2l8.3,0c1.1,0,2-0.9,2-2C79.2,53.4,78.3,52.5,77.2,52.5z"
	/>

<path class="st0" d="M24.4,62.2h-8.3c-1.1,0-2,0.9-2,2s0.9,2,2,2h8.3c1.1,0,2-0.9,2-2S25.5,62.2,24.4,62.2z"/>

<path class="st0" d="M42.1,62.2l-8.3,0c-1.1,0-2,0.9-2,2c0,1.1,0.9,2,2,2l8.3,0c1.1,0,2-0.9,2-2C44.1,63.1,43.2,62.2,42.1,62.2z"
	/>

<path class="st0" d="M59.6,62.1l-8.3,0c-1.1,0-2,0.9-2,2c0,1.1,0.9,2,2,2l8.3,0c1.1,0,2-0.9,2-2C61.6,63,60.7,62.1,59.6,62.1z"/>
</svg>
