<?xml version="1.0" encoding="utf-8"?>
<svg version="1.0" id="Layer_1" xmlns="http://www.w3.org/2000/svg" xmlns:xlink="http://www.w3.org/1999/xlink" x="0px" y="0px"
	 viewBox="0 0 92.8 93.9" style="enable-background:new 0 0 92.8 93.9;" xml:space="preserve">
<style type="text/css">
	.st0{fill:#007AFF;}
</style>

<path class="st0" d="M83.5,16.6H9.3c-4.3,0-7.8,3.5-7.8,7.8v45.2c0,4.3,3.5,7.8,7.8,7.8h74.3c4.3,0,7.8-3.5,7.8-7.8V24.3
	C91.3,20.1,87.8,16.6,83.5,16.6z M83.5,20.6c0.4,0,0.8,0.1,1.1,0.2L49.1,56.3c-1.5,1.5-3.9,1.5-5.3,0L8.1,20.8
	c0.4-0.1,0.7-0.2,1.1-0.2H83.5z M87.3,69.5c0,2.1-1.7,3.8-3.8,3.8H9.3c-2.1,0-3.8-1.7-3.8-3.8V24.3c0-0.2,0-0.4,0.1-0.5l35.3,35.3
	c1.5,1.5,3.5,2.3,5.5,2.3c2,0,4-0.8,5.5-2.3l35.3-35.3c0,0.2,0.1,0.3,0.1,0.5V69.5z"/>
</svg>
